<svg width="430" height="122" viewBox="0 0 430 122" fill="none" xmlns="http://www.w3.org/2000/svg">
  <defs>
    <linearGradient id="zyraWord" x1="120" y1="28" x2="390" y2="94" gradientUnits="userSpaceOnUse">
      <stop offset="0" stop-color="#6C92D3"/>
      <stop offset="1" stop-color="#264A57"/>
    </linearGradient>
    <symbol id="zyraMark" viewBox="0 0 128 128">
      <g transform="translate(8 18)">
        <path d="M17 11C12.5 11 9 14.6 9 19C9 22.4 11.1 25.4 14.1 26.7C13.4 27.8 13 29.1 13 30.5C13 34 15.5 36.9 18.8 37.8C18.3 38.8 18 40 18 41.2C18 45.6 21.6 49.2 26 49.2H48V11H17Z" fill="#C5D4EA" stroke="#1F3D58" stroke-width="2.8" stroke-linejoin="round"/>
        <path d="M26.5 49.2C22.8 49.2 19.8 52.2 19.8 55.9C19.8 58.1 20.9 60.1 22.6 61.3C21.5 62.6 20.8 64.3 20.8 66.1C20.8 70.3 24.2 73.7 28.4 73.7H48V49.2H26.5Z" fill="#C5D4EA" stroke="#1F3D58" stroke-width="2.8" stroke-linejoin="round"/>
        <path d="M47.8 11V73.6" stroke="#1F3D58" stroke-width="3.1" stroke-linecap="round"/>
        <path d="M39.2 23.4C37.9 22.1 37.9 20 39.2 18.7" stroke="#1F3D58" stroke-width="2.2" stroke-linecap="round"/>
        <path d="M33.8 39.7C32.2 38.2 32.2 35.7 33.8 34.1" stroke="#1F3D58" stroke-width="2.2" stroke-linecap="round"/>
        <path d="M31.8 59.8C30.3 58.3 30.3 55.8 31.8 54.3" stroke="#1F3D58" stroke-width="2.2" stroke-linecap="round"/>

        <rect x="47.8" y="13" width="54" height="58.8" rx="8.5" fill="#A9BFDF" stroke="#1F3D58" stroke-width="3.1"/>
        <path d="M54.2 25.3L62.2 33.3M54.2 59.8L62.2 51.8" stroke="#58789E" stroke-width="2" stroke-linecap="round"/>
        <path d="M94.3 25.3L86.3 33.3M94.3 59.8L86.3 51.8" stroke="#58789E" stroke-width="2" stroke-linecap="round"/>

        <rect x="67.3" y="34.8" width="14.8" height="14.8" rx="2" fill="#F2F5F8" stroke="#1F3D58" stroke-width="2.2"/>

        <path d="M61.8 4.7V13M73.8 4.7V13M85.8 4.7V13" stroke="#1F3D58" stroke-width="3" stroke-linecap="round"/>
        <path d="M61.8 71.8V80.1M73.8 71.8V80.1M85.8 71.8V80.1" stroke="#1F3D58" stroke-width="3" stroke-linecap="round"/>
        <path d="M101.8 28.7H110.1M101.8 42.4H110.1M101.8 56.1H110.1" stroke="#1F3D58" stroke-width="3" stroke-linecap="round"/>
      </g>
    </symbol>
  </defs>

  <g transform="translate(8, 6) scale(0.86)">
    <use href="#zyraMark"/>
  </g>
  <text x="128" y="72" fill="url(#zyraWord)" font-family="Sora, Segoe UI, sans-serif" font-size="58" font-weight="700" letter-spacing="2">ZYRA</text>
  <text x="131" y="98" fill="#6d809c" font-family="Manrope, Segoe UI, sans-serif" font-size="18" font-weight="600" letter-spacing="1.4">AI ASSESSMENT HUB</text>
</svg>
